<svg version="1.1" id="Layer_1" xmlns="http://www.w3.org/2000/svg" xmlns:xlink="http://www.w3.org/1999/xlink" x="0px" y="0px"
	 width="100%" viewBox="0 0 264 134" enable-background="new 0 0 264 134" xml:space="preserve">
<path fill="#F3DEE0" opacity="1.000000" stroke="none" 
	d="
M1.000000,53.000000 
	C1.000000,49.969406 1.000000,46.938812 1.371333,43.445953 
	C5.826830,40.684063 9.910995,38.384441 14.411939,36.061802 
	C16.219994,36.027538 17.611271,36.016289 19.209446,36.238342 
	C20.276014,36.015007 21.135685,35.558369 22.371056,35.080894 
	C23.499121,35.058861 24.251482,35.057663 25.090870,35.402260 
	C27.990108,35.833900 30.802324,35.919743 33.698841,36.399277 
	C33.726021,37.860207 33.668903,38.927448 33.274948,40.008762 
	C32.071297,40.757828 31.204477,41.492821 30.337658,42.227814 
	C31.426636,43.153999 32.515614,44.080185 33.687984,45.419769 
	C33.910408,47.454971 34.049442,49.076775 34.188477,50.698574 
	C34.879906,50.672947 35.571339,50.647320 36.262768,50.621693 
	C36.262768,45.076302 36.262768,39.530914 36.677387,33.982697 
	C41.157967,33.493027 45.223930,33.006184 49.289890,32.519341 
	C49.261223,32.017536 49.232555,31.515730 49.203892,31.013924 
	C44.889206,31.013924 40.574524,31.013924 36.167953,30.567398 
	C36.092278,26.818338 36.108490,23.515802 36.581268,20.146124 
	C90.557083,20.056414 144.076324,20.026960 197.595581,20.020256 
	C204.072815,20.019445 210.550049,20.141453 216.957123,20.551109 
	C215.118469,21.931175 213.421906,23.125193 211.565796,23.967615 
	C208.184601,25.502220 204.708755,26.828245 201.272415,28.241291 
	C201.434540,28.668865 201.596664,29.096439 201.758804,29.524014 
	C212.466339,30.010754 223.173874,30.497492 233.977234,31.445042 
	C234.073059,38.190975 234.073059,44.476093 234.073059,50.761215 
	C234.878220,50.749401 235.683380,50.737591 236.488541,50.725780 
	C236.488541,44.195976 236.488541,37.666172 236.984222,31.096294 
	C240.462799,31.045527 243.446259,30.991980 246.428452,31.032469 
	C254.222595,31.138287 255.192642,32.137726 254.662216,40.000000 
	C258.127502,40.000000 261.563751,40.000000 265.000000,40.000000 
	C265.000000,47.020947 265.000000,54.041897 264.596893,61.541061 
	C257.683289,63.011379 251.141449,63.841160 244.680557,65.089874 
	C242.616852,65.488731 240.767792,66.998230 238.820526,67.999550 
	C238.996048,68.471626 239.171570,68.943703 239.347092,69.415771 
	C241.223206,69.780731 243.088196,70.225670 244.978516,70.488541 
	C246.935211,70.760643 248.914108,70.891838 250.887421,71.022293 
	C257.724152,71.474266 262.109955,74.628540 260.733643,78.738380 
	C258.762054,84.625687 256.130768,90.335838 253.269455,95.856407 
	C252.333420,97.662430 249.801880,98.641510 247.635101,99.995956 
	C246.299194,100.246841 245.328186,100.500534 244.357162,100.754227 
	C244.326691,101.136642 244.296204,101.519058 244.265732,101.901482 
	C245.504089,102.277275 246.742447,102.653069 247.995178,103.353638 
	C248.033310,104.111221 248.057068,104.544029 248.057388,105.315506 
	C248.034637,106.106644 248.035309,106.559120 247.858261,107.306267 
	C245.859085,109.485146 242.655380,111.247292 242.476181,113.276512 
	C241.945282,119.288704 236.929794,125.045647 230.839264,124.994720 
	C186.578522,124.624702 142.294388,126.170753 98.064255,123.064064 
	C89.110634,122.435181 80.073380,123.031754 71.075294,122.971588 
	C69.275909,122.959564 67.451500,122.656845 65.686447,122.269974 
	C59.391685,120.890266 53.181786,118.931625 46.820946,118.088760 
	C36.548641,116.727592 21.277952,106.138435 19.471592,96.732430 
	C18.478418,91.560806 15.928784,90.776810 12.111912,89.983185 
	C10.490648,89.646080 8.557223,89.478859 7.418597,88.485794 
	C5.964372,87.217468 3.892950,84.720139 4.315731,83.575500 
	C6.039106,78.909653 3.977465,75.923943 1.000000,73.000000 
	C1.000000,70.629440 1.000000,68.258888 1.383115,65.445374 
	C3.003131,64.594551 4.431537,64.449577 5.433757,63.719532 
	C7.095238,62.509262 9.960627,60.482685 9.692469,59.581558 
	C9.036450,57.377064 7.089272,55.374985 5.238523,53.783657 
	C4.297083,52.974186 2.442046,53.227253 1.000000,53.000000 
M195.996979,83.004639 
	C195.996979,83.004639 195.935959,83.020035 196.071625,83.751633 
	C196.896408,84.501648 197.721176,85.251663 199.317993,86.703735 
	C199.122650,83.099411 198.992172,80.691917 198.869003,77.411804 
	C198.855057,77.121246 198.841110,76.830696 199.282913,76.063354 
	C200.558868,73.164719 202.681015,70.319901 202.869781,67.352119 
	C203.053909,64.456863 204.110550,62.975929 206.194397,61.611637 
	C207.126923,61.001106 208.010056,60.315128 208.915604,59.663391 
	C208.748428,59.350224 208.581238,59.037056 208.414047,58.723888 
	C206.386124,59.383343 204.358200,60.042797 201.748352,60.891487 
	C201.425232,56.394356 201.137238,52.386116 200.726913,46.675308 
	C198.746521,48.941395 196.760254,50.209042 196.459518,51.796082 
	C196.018448,54.123711 196.310410,56.855339 197.142761,59.098404 
	C198.463745,62.658344 197.534882,64.676567 194.187378,66.055702 
	C193.365967,66.394112 192.762253,67.260895 191.946976,68.556297 
	C190.530441,69.996201 188.340317,71.129745 189.966934,74.441994 
	C191.305298,75.313004 192.643661,76.184013 193.731476,77.490814 
	C193.456772,77.681152 193.182068,77.871490 192.235229,78.514565 
	C192.235229,80.894806 192.235229,83.275047 192.235229,85.712059 
	C193.238632,84.042236 194.136963,82.547279 195.035507,80.966812 
	C195.035507,80.966812 194.950531,80.957169 194.404053,81.518616 
	C194.929916,82.034302 195.455795,82.549988 195.996979,83.004639 
M134.329483,49.075272 
	C134.511032,49.528919 134.692566,49.982567 134.731415,50.719471 
	C134.731415,50.719471 134.912613,50.979782 134.798477,51.513649 
	C134.893448,51.668865 134.988434,51.824085 134.841278,52.719349 
	C134.675705,54.490643 134.510132,56.261936 134.075043,58.822102 
	C134.165298,60.275753 134.255554,61.729404 134.345810,63.183056 
	C134.804871,63.325844 135.263947,63.468628 135.723007,63.611416 
	C136.489441,62.425110 137.255859,61.238804 138.569351,59.702564 
	C139.093140,60.139870 139.616943,60.577175 139.992966,61.836319 
	C139.715515,64.743431 139.895340,67.663208 143.150314,68.654350 
	C144.348724,69.019264 146.849045,68.296936 147.308762,67.360367 
	C149.579956,62.733387 152.215073,63.967644 154.969818,66.226051 
	C154.969818,66.226051 155.146667,66.086708 155.146667,66.086708 
	C155.146667,66.086708 154.994400,66.345291 154.328186,65.720444 
	C155.082520,61.639442 155.836838,57.558441 156.694672,52.917423 
	C154.047562,50.908222 152.970123,52.868935 151.673630,55.723488 
	C150.091660,59.206551 147.918137,62.420937 146.000473,65.751526 
	C145.404922,65.457123 144.809372,65.162712 144.213806,64.868301 
	C144.878265,62.777107 145.821030,60.727402 146.140488,58.584770 
	C146.594009,55.542908 146.588760,52.432644 146.779556,49.351616 
	C144.537582,50.853283 142.295624,52.354954 139.957367,53.386909 
	C139.776093,53.081989 139.508102,52.932041 139.368484,52.179073 
	C139.364746,50.562340 139.360992,48.945602 139.357239,47.328865 
	C137.852631,47.823288 136.348038,48.317711 134.878479,48.850163 
	C134.878479,48.850163 134.864655,48.807621 134.329483,49.075272 
M63.520008,71.577988 
	C63.654392,72.039459 63.788780,72.500938 63.983627,72.916550 
	C63.983627,72.916550 63.925674,72.867439 63.351128,72.221436 
	C58.051319,77.011887 57.247520,81.347618 61.041996,84.676933 
	C64.652618,87.844933 68.545074,87.882141 70.558533,83.598213 
	C77.590508,68.636673 84.094162,53.424343 90.566475,38.208580 
	C90.943230,37.322876 89.538086,35.212391 88.431374,34.365776 
	C87.903618,33.962044 85.627998,34.836922 84.998009,35.732986 
	C80.161942,42.611546 75.535843,49.637722 70.180183,57.018761 
	C68.901741,58.287594 67.623299,59.556427 66.344856,60.825260 
	C65.951889,60.531166 65.558922,60.237068 65.165955,59.942970 
	C66.264404,51.594582 68.386101,43.603889 72.899071,36.225620 
	C73.703667,34.910187 72.809959,32.555977 72.700439,30.681417 
	C71.260101,31.525713 69.011925,32.041222 68.512451,33.268444 
	C65.590714,40.447247 62.908997,47.737209 60.497231,55.104546 
	C59.245064,58.929615 61.579163,63.793182 64.620506,64.616722 
	C69.301262,65.884201 70.837395,62.674149 72.678032,58.858532 
	C73.692993,57.939514 74.707954,57.020493 75.722916,56.101471 
	C76.201134,56.328060 76.679359,56.554649 77.157585,56.781239 
	C75.148125,62.187923 73.138664,67.594604 70.612320,73.390266 
	C70.436798,73.986580 70.261276,74.582893 70.054596,75.729454 
	C69.756866,76.176834 69.459137,76.624222 68.410400,77.068649 
	C63.529682,77.366661 66.308868,74.181999 66.820511,71.981117 
	C67.866493,70.468826 68.912476,68.956528 69.958458,67.444237 
	C69.481308,67.070221 69.004150,66.696198 68.526993,66.322174 
	C66.997139,67.805397 65.467278,69.288620 63.520008,71.577988 
M106.476776,62.366783 
	C106.461021,62.563663 106.445274,62.760540 106.337082,62.986916 
	C106.337082,62.986916 106.319847,63.003948 105.663582,63.481430 
	C104.630310,64.634842 103.597038,65.788254 102.563766,66.941666 
	C102.115295,66.728539 101.666817,66.515411 101.218346,66.302284 
	C102.131592,62.916756 102.850685,59.463120 104.008263,56.163303 
	C105.389038,52.227268 104.015335,51.268864 99.543427,52.154556 
	C99.274300,52.186172 99.005165,52.217789 99.001137,52.180984 
	C99.001137,52.180984 98.745628,52.280075 98.844101,51.503277 
	C96.826012,47.998356 94.574738,47.353901 91.656128,51.591942 
	C86.872017,54.778511 86.335915,59.897110 86.122025,64.868141 
	C86.028481,67.042076 87.879555,68.741776 90.417465,67.169189 
	C92.686653,65.763123 94.759377,64.039993 96.814705,62.533066 
	C97.461113,70.322815 98.501091,71.464981 104.396820,69.919937 
	C104.645744,69.958626 104.894676,69.997307 104.999603,70.836922 
	C105.514229,76.128639 109.943649,79.091263 114.003746,76.107925 
	C116.390137,74.354416 118.397018,70.531609 118.482422,67.579025 
	C118.598129,63.579201 120.028763,62.038795 123.038338,61.271088 
	C124.412102,62.852489 125.541351,64.152428 126.670609,65.452370 
	C127.489456,64.372543 128.308304,63.292713 129.655029,61.802330 
	C130.619492,58.936691 134.155334,56.158180 129.966293,52.609760 
	C129.735718,52.378181 129.505157,52.146603 129.165405,51.416382 
	C128.474457,51.623180 127.783524,51.829979 126.585022,52.522175 
	C125.357918,56.956306 122.727676,59.922367 117.252876,60.968170 
	C116.951630,56.687183 116.663498,52.592598 116.377335,48.526012 
	C111.957756,49.045403 111.482948,49.842850 111.256203,55.996338 
	C109.804520,57.981987 108.352844,59.967636 106.476776,62.366783 
M175.071426,59.421219 
	C174.100632,58.949875 173.129837,58.478531 172.203278,57.306061 
	C173.011383,56.073940 174.182999,54.936249 174.533920,53.585365 
	C174.954926,51.964634 174.676285,50.162155 174.700607,48.438374 
	C173.180740,49.128201 171.660889,49.818027 169.369080,50.641338 
	C168.380493,50.791729 167.391922,50.942123 166.762344,50.319057 
	C166.514420,49.276745 166.266495,48.234428 166.018570,47.192120 
	C165.074387,47.880482 163.676285,48.366070 163.262848,49.291527 
	C161.236938,53.826542 159.473145,58.478657 157.623810,63.071785 
	C162.622833,64.451035 165.063629,60.712784 167.096085,57.340469 
	C168.042343,60.158394 168.919617,62.770878 170.097412,65.993095 
	C171.747726,65.706009 174.185410,65.964897 174.855682,64.998268 
	C175.761703,63.691624 175.310074,61.443600 175.071426,59.421219 
M150.941635,110.711678 
	C179.196945,110.711678 207.452240,110.711678 235.759674,110.711678 
	C235.759674,99.472969 235.759674,88.717659 235.759674,77.962341 
	C235.266205,77.945778 234.772736,77.929214 234.279266,77.912651 
	C234.279266,88.162849 234.279266,98.413048 234.279266,108.887436 
	C231.528198,108.887436 229.717072,108.883430 227.905960,108.888039 
	C201.940903,108.954079 175.975830,109.021271 149.092438,108.878677 
	C111.530045,108.878677 73.967659,108.878677 35.520542,108.878677 
	C35.520542,98.117798 35.520542,88.096634 35.520542,78.075478 
	C35.085041,78.089935 34.649540,78.104401 34.214039,78.118866 
	C34.214039,88.786964 34.214039,99.455063 34.214039,110.812195 
	C36.414349,110.812195 38.534824,110.812462 40.655300,110.812141 
	C58.305321,110.809509 75.955437,110.842033 93.605339,110.794464 
	C112.411964,110.743774 131.218384,110.617310 150.941635,110.711678 
M182.518936,44.227863 
	C188.164581,42.061863 186.674515,36.516945 188.277344,32.041386 
	C186.248505,32.162769 183.639679,32.575661 183.326279,33.655037 
	C182.356934,36.993580 182.261917,40.585991 182.518936,44.227863 
M159.452362,45.863918 
	C162.028137,42.841839 161.591583,41.165199 157.428452,40.734360 
	C156.431870,44.085968 155.583557,46.938934 154.735245,49.791897 
	C155.197891,50.016411 155.660538,50.240925 156.123199,50.465439 
	C157.117935,49.161331 158.112686,47.857227 159.452362,45.863918 
M172.097000,80.783432 
	C172.640961,81.008850 173.184921,81.234268 173.728882,81.459686 
	C173.367279,80.534225 173.005692,79.608765 172.284531,77.763046 
	C172.071625,79.316422 172.008591,79.776375 172.097000,80.783432 
z"/>
<path fill="#FEFEFE" opacity="1.000000" stroke="none" 
	d="
M247.999985,99.998772 
	C249.801880,98.641510 252.333420,97.662430 253.269455,95.856407 
	C256.130768,90.335838 258.762054,84.625687 260.733643,78.738380 
	C262.109955,74.628540 257.724152,71.474266 250.887421,71.022293 
	C248.914108,70.891838 246.935211,70.760643 244.978516,70.488541 
	C243.088196,70.225670 241.223206,69.780731 239.347092,69.415771 
	C239.171570,68.943703 238.996048,68.471626 238.820526,67.999550 
	C240.767792,66.998230 242.616852,65.488731 244.680557,65.089874 
	C251.141449,63.841160 257.683289,63.011379 264.596893,62.009640 
	C265.000000,86.306633 265.000000,110.613274 265.000000,134.959961 
	C177.123276,134.959961 89.246529,134.959961 1.000000,134.959961 
	C1.000000,114.647263 1.000000,94.292290 1.000000,73.468658 
	C3.977465,75.923943 6.039106,78.909653 4.315731,83.575500 
	C3.892950,84.720139 5.964372,87.217468 7.418597,88.485794 
	C8.557223,89.478859 10.490648,89.646080 12.111912,89.983185 
	C15.928784,90.776810 18.478418,91.560806 19.471592,96.732430 
	C21.277952,106.138435 36.548641,116.727592 46.820946,118.088760 
	C53.181786,118.931625 59.391685,120.890266 65.686447,122.269974 
	C67.451500,122.656845 69.275909,122.959564 71.075294,122.971588 
	C80.073380,123.031754 89.110634,122.435181 98.064255,123.064064 
	C142.294388,126.170753 186.578522,124.624702 230.839264,124.994720 
	C236.929794,125.045647 241.945282,119.288704 242.476181,113.276512 
	C242.655380,111.247292 245.859085,109.485146 248.138031,107.256683 
	C248.895172,106.599365 249.194809,106.286301 249.494446,105.973236 
	C249.023239,105.641106 248.552032,105.308968 248.080826,104.976837 
	C248.057068,104.544029 248.033310,104.111221 248.001587,102.974350 
	C247.995743,101.513123 247.997864,100.755951 247.999985,99.998772 
z"/>
<path fill="#FEFEFE" opacity="1.000000" stroke="none" 
	d="
M25.003845,35.056461 
	C24.251482,35.057663 23.499121,35.058861 22.039164,35.057739 
	C20.555227,35.371956 19.778887,35.688496 19.002546,36.005039 
	C17.611271,36.016289 16.219994,36.027538 14.011157,36.043152 
	C9.129065,37.031677 5.064532,38.015839 1.000000,39.000000 
	C1.000000,26.349602 1.000000,13.699203 1.000000,1.000000 
	C88.704247,1.000000 176.408508,0.999900 264.112762,1.004176 
	C264.408905,1.004190 264.705017,1.067568 265.000580,1.106417 
	C265.000000,13.761882 265.000000,26.412283 265.000000,39.531342 
	C261.563751,40.000000 258.127502,40.000000 254.662216,40.000000 
	C255.192642,32.137726 254.222595,31.138287 246.428452,31.032469 
	C243.446259,30.991980 240.462799,31.045527 236.898712,30.687340 
	C236.306351,27.201921 236.469193,24.069248 236.182571,20.978254 
	C236.091461,19.995735 234.803970,19.124161 233.613495,18.060455 
	C228.769150,17.968437 224.375214,18.017784 219.662842,17.980602 
	C218.910873,17.825012 218.477341,17.755951 217.962906,17.328987 
	C217.151047,16.353233 216.479324,15.290180 215.680328,15.183862 
	C202.237167,13.395081 188.820068,10.923146 175.312820,10.217649 
	C155.060196,9.159835 134.742935,9.226734 114.451149,9.062825 
	C93.460587,8.893270 72.467087,8.951947 51.476616,9.123875 
	C49.464531,9.140356 45.671917,10.870723 45.738930,11.461300 
	C46.354675,16.887917 42.691349,15.778129 39.677670,16.083351 
	C38.373875,16.215397 37.144932,17.086462 35.831699,17.765530 
	C35.781410,17.909225 36.028198,18.087576 35.708191,18.020720 
	C34.953518,17.986065 34.518860,18.018267 33.795574,17.894997 
	C32.676003,17.512678 31.845051,17.285833 30.556501,17.042057 
	C28.110102,17.015873 26.108978,17.143948 24.135242,16.966827 
	C20.740232,16.662167 18.650511,18.058958 18.149158,21.408617 
	C17.677816,24.557775 18.002836,27.528736 21.824648,28.448292 
	C24.514729,29.095543 27.257807,29.522522 30.157188,30.261116 
	C31.416210,30.335892 32.495262,30.197403 33.650894,30.443186 
	C33.676895,31.867201 33.626316,32.906944 33.185268,33.949371 
	C30.197813,34.320194 27.600828,34.688328 25.003845,35.056461 
z"/>
<path fill="#FDFCFA" opacity="1.000000" stroke="none" 
	d="
M1.000000,53.460636 
	C2.442046,53.227253 4.297083,52.974186 5.238523,53.783657 
	C7.089272,55.374985 9.036450,57.377064 9.692469,59.581558 
	C9.960627,60.482685 7.095238,62.509262 5.433757,63.719532 
	C4.431537,64.449577 3.003131,64.594551 1.383115,65.001213 
	C1.000000,61.307091 1.000000,57.614182 1.000000,53.460636 
z"/>
<path fill="#F2DFE0" opacity="1.000000" stroke="none" 
	d="
M1.000000,39.399994 
	C5.064532,38.015839 9.129065,37.031677 13.594378,36.066166 
	C9.910995,38.384441 5.826830,40.684063 1.371333,42.991844 
	C1.000000,41.933331 1.000000,40.866661 1.000000,39.399994 
z"/>
<path fill="#1B1817" opacity="1.000000" stroke="none" 
	d="
M70.844543,56.618057 
	C75.535843,49.637722 80.161942,42.611546 84.998009,35.732986 
	C85.627998,34.836922 87.903618,33.962044 88.431374,34.365776 
	C89.538086,35.212391 90.943230,37.322876 90.566475,38.208580 
	C84.094162,53.424343 77.590508,68.636673 70.558533,83.598213 
	C68.545074,87.882141 64.652618,87.844933 61.041996,84.676933 
	C57.247520,81.347618 58.051319,77.011887 63.805862,72.927261 
	C63.396584,76.576164 62.532570,79.519241 61.638565,82.564476 
	C67.131981,83.565643 68.016571,80.167351 69.161407,77.071609 
	C69.459137,76.624222 69.756866,76.176834 70.320442,75.257301 
	C70.767258,74.190529 70.948235,73.595909 71.129211,73.001289 
	C73.138664,67.594604 75.148125,62.187923 77.157585,56.781239 
	C76.679359,56.554649 76.201134,56.328060 75.722916,56.101471 
	C74.707954,57.020493 73.692993,57.939514 72.224777,58.679672 
	C71.462524,57.873230 71.153534,57.245644 70.844543,56.618057 
z"/>
<path fill="#5D5353" opacity="1.000000" stroke="none" 
	d="
M218.043823,17.686890 
	C218.477341,17.755951 218.910873,17.825012 219.503174,18.197552 
	C219.113068,18.956573 218.564194,19.412119 217.770691,19.959316 
	C217.359802,20.102823 217.193542,20.154680 217.027283,20.206535 
	C210.550049,20.141453 204.072815,20.019445 197.595581,20.020256 
	C144.076324,20.026960 90.557083,20.056414 36.562080,19.791847 
	C36.066948,19.032337 36.047573,18.559956 36.028198,18.087576 
	C36.028198,18.087576 35.781410,17.909225 36.295883,17.879292 
	C92.235260,17.871435 147.660156,17.899500 203.085068,17.905390 
	C208.071320,17.905920 213.057571,17.763124 218.043823,17.686890 
z"/>
<path fill="#403938" opacity="1.000000" stroke="none" 
	d="
M150.024887,110.523926 
	C131.218384,110.617310 112.411964,110.743774 93.605339,110.794464 
	C75.955437,110.842033 58.305321,110.809509 40.655300,110.812141 
	C38.534824,110.812462 36.414349,110.812195 34.214039,110.812195 
	C34.214039,99.455063 34.214039,88.786964 34.214039,78.118866 
	C34.649540,78.104401 35.085041,78.089935 35.520542,78.075478 
	C35.520542,88.096634 35.520542,98.117798 35.520542,108.878677 
	C73.967659,108.878677 111.530045,108.878677 149.563110,109.222824 
	C150.070099,109.886322 150.067123,110.205307 150.024887,110.523926 
z"/>
<path fill="#352828" opacity="1.000000" stroke="none" 
	d="
M150.483261,110.617798 
	C150.067123,110.205307 150.070099,109.886322 150.022278,109.327576 
	C175.975830,109.021271 201.940903,108.954079 227.905960,108.888039 
	C229.717072,108.883430 231.528198,108.887436 234.279266,108.887436 
	C234.279266,98.413048 234.279266,88.162849 234.279266,77.912651 
	C234.772736,77.929214 235.266205,77.945778 235.759674,77.962341 
	C235.759674,88.717659 235.759674,99.472969 235.759674,110.711678 
	C207.452240,110.711678 179.196945,110.711678 150.483261,110.617798 
z"/>
<path fill="#FEFCFB" opacity="1.000000" stroke="none" 
	d="
M216.957123,20.551109 
	C217.193542,20.154680 217.359802,20.102823 218.231995,20.026495 
	C223.939377,20.035126 228.940842,20.068228 234.008850,20.548786 
	C234.010727,24.325573 233.946060,27.654903 233.881409,30.984234 
	C223.173874,30.497492 212.466339,30.010754 201.758804,29.524014 
	C201.596664,29.096439 201.434540,28.668865 201.272415,28.241291 
	C204.708755,26.828245 208.184601,25.502220 211.565796,23.967615 
	C213.421906,23.125193 215.118469,21.931175 216.957123,20.551109 
z"/>
<path fill="#1C1817" opacity="1.000000" stroke="none" 
	d="
M129.274582,51.915016 
	C129.505157,52.146603 129.735718,52.378181 129.774139,53.154633 
	C127.942322,56.457809 125.416687,59.168777 129.127167,62.212891 
	C128.308304,63.292713 127.489456,64.372543 126.670609,65.452370 
	C125.541351,64.152428 124.412102,62.852489 123.038338,61.271088 
	C120.028763,62.038795 118.598129,63.579201 118.482422,67.579025 
	C118.397018,70.531609 116.390137,74.354416 114.003746,76.107925 
	C109.943649,79.091263 105.514229,76.128639 105.398376,70.284790 
	C107.607620,68.810333 109.418091,67.888023 111.072578,67.288223 
	C109.521103,69.342461 108.125618,71.074181 106.730125,72.805901 
	C107.106178,73.235313 107.482239,73.664734 107.858299,74.094147 
	C109.286407,73.551247 110.977501,73.324646 112.088776,72.400688 
	C114.525375,70.374779 113.974258,68.002991 110.701942,66.816360 
	C112.996605,64.423271 114.119637,61.832703 112.721298,58.150726 
	C112.550278,57.206425 112.275665,56.602043 112.001060,55.997662 
	C111.482948,49.842850 111.957756,49.045403 116.377335,48.526012 
	C116.663498,52.592598 116.951630,56.687183 117.252876,60.968170 
	C122.727676,59.922367 125.357918,56.956306 127.203171,52.275108 
	C128.305740,51.990368 128.790161,51.952694 129.274582,51.915016 
z"/>
<path fill="#1D1817" opacity="1.000000" stroke="none" 
	d="
M70.512360,56.818409 
	C71.153534,57.245644 71.462524,57.873230 71.917252,58.819237 
	C70.837395,62.674149 69.301262,65.884201 64.620506,64.616722 
	C61.579163,63.793182 59.245064,58.929615 60.497231,55.104546 
	C62.908997,47.737209 65.590714,40.447247 68.512451,33.268444 
	C69.011925,32.041222 71.260101,31.525713 72.700439,30.681416 
	C72.809959,32.555977 73.703667,34.910187 72.899071,36.225620 
	C68.386101,43.603889 66.264404,51.594582 65.165955,59.942970 
	C65.558922,60.237068 65.951889,60.531166 66.344856,60.825260 
	C67.623299,59.556427 68.901741,58.287594 70.512360,56.818409 
z"/>
<path fill="#1F1918" opacity="1.000000" stroke="none" 
	d="
M140.053650,53.856621 
	C142.295624,52.354954 144.537582,50.853283 146.779556,49.351616 
	C146.588760,52.432644 146.594009,55.542908 146.140488,58.584770 
	C145.821030,60.727402 144.878265,62.777107 144.213806,64.868301 
	C144.809372,65.162712 145.404922,65.457123 146.000473,65.751526 
	C147.918137,62.420937 150.091660,59.206551 151.673630,55.723488 
	C152.970123,52.868935 154.047562,50.908222 156.694672,52.917423 
	C155.836838,57.558441 155.082520,61.639442 154.706696,66.012711 
	C155.085190,66.304977 155.170120,66.356514 155.170120,66.356514 
	C152.215073,63.967644 149.579956,62.733387 147.308762,67.360367 
	C146.849045,68.296936 144.348724,69.019264 143.150314,68.654350 
	C139.895340,67.663208 139.715515,64.743431 140.397675,61.325294 
	C143.792038,56.147392 139.758896,57.207378 137.296066,56.273529 
	C137.608383,57.898689 137.815338,58.975594 138.022293,60.052498 
	C137.255859,61.238804 136.489441,62.425110 135.723007,63.611416 
	C135.263947,63.468628 134.804871,63.325844 134.345810,63.183056 
	C134.255554,61.729404 134.165298,60.275753 134.542450,58.315651 
	C135.802719,55.592419 136.810059,53.416317 137.243423,51.131355 
	C137.357178,50.531586 135.691772,49.594383 134.843430,48.812138 
	C136.348038,48.317711 137.852631,47.823288 139.357239,47.328865 
	C139.360992,48.945602 139.364746,50.562340 139.035095,52.709419 
	C138.676682,53.638336 138.651672,54.036907 138.626663,54.435474 
	C139.102325,54.242523 139.577988,54.049572 140.053650,53.856621 
z"/>
<path fill="#1D1818" opacity="1.000000" stroke="none" 
	d="
M103.649162,69.809654 
	C98.501091,71.464981 97.461113,70.322815 96.814705,62.533066 
	C94.759377,64.039993 92.686653,65.763123 90.417465,67.169189 
	C87.879555,68.741776 86.028481,67.042076 86.122025,64.868141 
	C86.335915,59.897110 86.872017,54.778511 92.162888,51.324921 
	C92.602333,52.416904 92.764839,53.837444 92.420784,55.122341 
	C91.658257,57.970016 90.641426,60.749599 89.728294,63.556946 
	C90.324020,63.763802 90.919754,63.970657 91.515488,64.177513 
	C94.151245,60.567230 98.852158,57.980106 96.392021,51.847168 
	C97.461990,52.043968 98.103806,52.162022 98.745628,52.280075 
	C98.745628,52.280075 99.001137,52.180984 98.977081,52.502792 
	C99.420639,52.610901 99.888237,52.397198 100.355843,52.183498 
	C104.015335,51.268864 105.389038,52.227268 104.008263,56.163303 
	C102.850685,59.463120 102.131592,62.916756 101.218346,66.302284 
	C101.666817,66.515411 102.115295,66.728539 102.563766,66.941666 
	C103.597038,65.788254 104.630310,64.634842 106.500847,63.536354 
	C107.249443,63.972900 107.160782,64.354523 106.770523,65.060226 
	C106.356476,65.657166 106.244019,65.930038 106.018295,66.497345 
	C105.153076,67.797745 104.401115,68.803703 103.649162,69.809654 
z"/>
<path fill="#1D1918" opacity="1.000000" stroke="none" 
	d="
M193.982025,77.055023 
	C192.643661,76.184013 191.305298,75.313004 190.340424,74.120346 
	C197.045334,73.666679 198.520691,72.144073 197.256775,67.527061 
	C195.461746,67.650574 193.760101,67.767670 192.058456,67.884766 
	C192.762253,67.260895 193.365967,66.394112 194.187378,66.055702 
	C197.534882,64.676567 198.463745,62.658344 197.142761,59.098404 
	C196.310410,56.855339 196.018448,54.123711 196.459518,51.796082 
	C196.760254,50.209042 198.746521,48.941395 200.726913,46.675308 
	C201.137238,52.386116 201.425232,56.394356 201.748352,60.891487 
	C204.358200,60.042797 206.386124,59.383343 208.414047,58.723888 
	C208.581238,59.037056 208.748428,59.350224 208.915604,59.663391 
	C208.010056,60.315128 207.126923,61.001106 206.194397,61.611637 
	C204.110550,62.975929 203.053909,64.456863 202.869781,67.352119 
	C202.681015,70.319901 200.558868,73.164719 198.649887,76.333595 
	C196.671921,76.754234 195.326965,76.904633 193.982025,77.055023 
z"/>
<path fill="#261F1E" opacity="1.000000" stroke="none" 
	d="
M169.796890,65.383362 
	C168.919617,62.770878 168.042343,60.158394 167.096085,57.340469 
	C165.063629,60.712784 162.622833,64.451035 157.623810,63.071785 
	C159.473145,58.478657 161.236938,53.826542 163.262848,49.291527 
	C163.676285,48.366070 165.074387,47.880482 166.018585,47.192116 
	C166.266495,48.234428 166.514420,49.276745 166.299820,50.780643 
	C165.244263,52.370117 164.651230,53.498005 163.938080,54.854317 
	C170.806580,55.838600 170.806580,55.838600 170.141022,50.507858 
	C171.660889,49.818027 173.180740,49.128201 174.700623,48.438377 
	C174.676285,50.162155 174.954926,51.964634 174.533920,53.585365 
	C174.182999,54.936249 173.011383,56.073940 171.973389,57.940582 
	C171.794220,59.895638 171.844925,61.216164 171.623169,62.703583 
	C170.832764,63.708103 170.314819,64.545731 169.796890,65.383362 
z"/>
<path fill="#332A2A" opacity="1.000000" stroke="none" 
	d="
M233.977234,31.445044 
	C233.946060,27.654903 234.010727,24.325573 234.035522,20.232002 
	C234.018417,19.045782 234.041168,18.623800 234.063934,18.201818 
	C234.803970,19.124161 236.091461,19.995735 236.182571,20.978254 
	C236.469193,24.069248 236.306351,27.201921 236.403015,30.727413 
	C236.488541,37.666172 236.488541,44.195976 236.488541,50.725780 
	C235.683380,50.737591 234.878220,50.749401 234.073059,50.761215 
	C234.073059,44.476093 234.073059,38.190975 233.977234,31.445044 
z"/>
<path fill="#D2C9C9" opacity="1.000000" stroke="none" 
	d="
M98.794861,51.891674 
	C98.103806,52.162022 97.461990,52.043968 96.392021,51.847168 
	C98.852158,57.980106 94.151245,60.567230 91.515488,64.177513 
	C90.919754,63.970657 90.324020,63.763802 89.728294,63.556946 
	C90.641426,60.749599 91.658257,57.970016 92.420784,55.122341 
	C92.764839,53.837444 92.602333,52.416904 92.323975,51.000732 
	C94.574738,47.353901 96.826012,47.998356 98.794861,51.891674 
z"/>
<path fill="#282421" opacity="1.000000" stroke="none" 
	d="
M182.173187,44.153847 
	C182.261917,40.585991 182.356934,36.993580 183.326279,33.655037 
	C183.639679,32.575661 186.248505,32.162769 188.277344,32.041386 
	C186.674515,36.516945 188.164581,42.061863 182.173187,44.153847 
z"/>
<path fill="#423939" opacity="1.000000" stroke="none" 
	d="
M35.708191,18.020720 
	C36.047573,18.559956 36.066948,19.032337 36.105515,19.858994 
	C36.108490,23.515802 36.092278,26.818338 36.082779,30.934227 
	C36.147255,32.493561 36.205013,33.239544 36.262772,33.985523 
	C36.262768,39.530914 36.262768,45.076302 36.262768,50.621693 
	C35.571339,50.647320 34.879906,50.672947 34.188477,50.698574 
	C34.049442,49.076775 33.910408,47.454971 33.771919,45.007668 
	C33.718903,42.786343 33.665344,41.390514 33.611786,39.994690 
	C33.668903,38.927448 33.726021,37.860207 33.780350,36.057732 
	C33.710281,34.863895 33.643009,34.405293 33.575737,33.946686 
	C33.626316,32.906944 33.676895,31.867201 33.749870,30.103563 
	C33.716305,28.914957 33.660343,28.450247 33.687042,27.543339 
	C33.737385,24.402864 33.705059,21.704586 33.836216,18.793444 
	C34.027863,18.403875 34.056030,18.227171 34.084198,18.050468 
	C34.518860,18.018267 34.953518,17.986065 35.708191,18.020720 
z"/>
<path fill="#D2C8C9" opacity="1.000000" stroke="none" 
	d="
M104.022995,69.864792 
	C104.401115,68.803703 105.153076,67.797745 106.234833,66.397919 
	C106.733795,65.581413 106.902962,65.158775 107.072121,64.736145 
	C107.160782,64.354523 107.249443,63.972900 106.828979,63.297615 
	C106.319847,63.003948 106.337082,62.986916 106.760056,63.395134 
	C107.498482,63.595837 107.813934,63.388313 108.401321,62.977928 
	C109.988068,61.346920 111.302887,59.918777 112.617706,58.490639 
	C114.119637,61.832703 112.996605,64.423271 110.738297,66.795570 
	C111.170494,67.026054 111.228561,66.965706 111.228561,66.965706 
	C109.418091,67.888023 107.607620,68.810333 105.470383,69.884323 
	C104.894676,69.997307 104.645744,69.958626 104.022995,69.864792 
z"/>
<path fill="#D7CBCC" opacity="1.000000" stroke="none" 
	d="
M68.785904,77.070129 
	C68.016571,80.167351 67.131981,83.565643 61.638565,82.564476 
	C62.532570,79.519241 63.396584,76.576164 64.093140,73.250259 
	C63.925674,72.867439 63.983627,72.916550 64.255341,73.065552 
	C65.028221,72.815208 65.529396,72.415871 66.082359,72.085808 
	C66.134148,72.155083 66.238960,72.292709 66.238960,72.292709 
	C66.308868,74.181999 63.529682,77.366661 68.785904,77.070129 
z"/>
<path fill="#CFC5C5" opacity="1.000000" stroke="none" 
	d="
M192.002716,68.220528 
	C193.760101,67.767670 195.461746,67.650574 197.256775,67.527061 
	C198.520691,72.144073 197.045334,73.666679 190.302994,73.771935 
	C188.340317,71.129745 190.530441,69.996201 192.002716,68.220528 
z"/>
<path fill="#302A29" opacity="1.000000" stroke="none" 
	d="
M159.279892,46.208519 
	C158.112686,47.857227 157.117935,49.161331 156.123199,50.465439 
	C155.660538,50.240925 155.197891,50.016411 154.735245,49.791897 
	C155.583557,46.938934 156.431870,44.085968 157.428452,40.734360 
	C161.591583,41.165199 162.028137,42.841839 159.279892,46.208519 
z"/>
<path fill="#35302E" opacity="1.000000" stroke="none" 
	d="
M129.391098,62.007610 
	C125.416687,59.168777 127.942322,56.457809 129.765656,53.408424 
	C134.155334,56.158180 130.619492,58.936691 129.391098,62.007610 
z"/>
<path fill="#FCF1F0" opacity="1.000000" stroke="none" 
	d="
M36.677391,33.982697 
	C36.205013,33.239544 36.147255,32.493561 36.174667,31.380753 
	C40.574524,31.013924 44.889206,31.013924 49.203892,31.013924 
	C49.232555,31.515730 49.261223,32.017536 49.289890,32.519341 
	C45.223930,33.006184 41.157967,33.493027 36.677391,33.982697 
z"/>
<path fill="#2D2826" opacity="1.000000" stroke="none" 
	d="
M169.755051,50.574600 
	C170.806580,55.838600 170.806580,55.838600 163.938080,54.854317 
	C164.651230,53.498005 165.244263,52.370117 166.120316,51.167374 
	C167.391922,50.942123 168.380493,50.791729 169.755051,50.574600 
z"/>
<path fill="#8B8685" opacity="1.000000" stroke="none" 
	d="
M169.947144,65.688232 
	C170.314819,64.545731 170.832764,63.708103 171.942963,62.483704 
	C173.503799,61.264450 174.472382,60.431961 175.440948,59.599480 
	C175.310074,61.443600 175.761703,63.691624 174.855682,64.998268 
	C174.185410,65.964897 171.747726,65.706009 169.947144,65.688232 
z"/>
<path fill="#D4C7C7" opacity="1.000000" stroke="none" 
	d="
M193.856750,77.272919 
	C195.326965,76.904633 196.671921,76.754234 198.422028,76.571991 
	C198.841110,76.830696 198.855057,77.121246 198.607910,78.083832 
	C197.543213,80.177246 196.739594,81.598640 195.935959,83.020035 
	C195.935959,83.020035 195.996979,83.004639 196.133484,82.721634 
	C195.830154,81.944809 195.390335,81.450989 194.950531,80.957169 
	C194.950531,80.957169 195.035507,80.966812 194.925354,80.721161 
	C194.179245,79.670944 193.543320,78.866386 192.907379,78.061829 
	C193.182068,77.871490 193.456772,77.681152 193.856750,77.272919 
z"/>
<path fill="#484140" opacity="1.000000" stroke="none" 
	d="
M112.721298,58.150723 
	C111.302887,59.918777 109.988068,61.346920 108.245682,62.725533 
	C107.512466,62.435097 107.206818,62.194191 106.901169,61.953285 
	C108.352844,59.967636 109.804520,57.981987 111.628632,55.997002 
	C112.275665,56.602043 112.550278,57.206425 112.721298,58.150723 
z"/>
<path fill="#D7CBCC" opacity="1.000000" stroke="none" 
	d="
M63.937424,70.771835 
	C65.467278,69.288620 66.997139,67.805397 68.526993,66.322174 
	C69.004150,66.696198 69.481308,67.070221 69.958458,67.444237 
	C68.912476,68.956528 67.866493,70.468826 66.529739,72.136917 
	C66.238960,72.292709 66.134148,72.155083 66.014099,71.728546 
	C65.241837,71.125282 64.589630,70.948563 63.937424,70.771835 
z"/>
<path fill="#2E2929" opacity="1.000000" stroke="none" 
	d="
M134.860962,48.831154 
	C135.691772,49.594383 137.357178,50.531586 137.243423,51.131355 
	C136.810059,53.416317 135.802719,55.592419 134.677185,57.921211 
	C134.510132,56.261936 134.675705,54.490643 135.096512,52.231239 
	C135.205368,51.488678 135.058990,51.234230 134.912613,50.979782 
	C134.912613,50.979782 134.731415,50.719471 134.830750,50.170391 
	C134.908279,49.350082 134.886459,49.078850 134.864655,48.807621 
	C134.864655,48.807621 134.878479,48.850163 134.860962,48.831154 
z"/>
<path fill="#F2DFE0" opacity="1.000000" stroke="none" 
	d="
M33.185265,33.949371 
	C33.643009,34.405293 33.710281,34.863895 33.696045,35.664043 
	C30.802324,35.919743 27.990108,35.833900 25.090870,35.402260 
	C27.600828,34.688328 30.197813,34.320194 33.185265,33.949371 
z"/>
<path fill="#F2DFE0" opacity="1.000000" stroke="none" 
	d="
M33.274948,40.008762 
	C33.665344,41.390514 33.718903,42.786343 33.688530,44.594269 
	C32.515614,44.080185 31.426636,43.153999 30.337658,42.227814 
	C31.204477,41.492821 32.071297,40.757828 33.274948,40.008762 
z"/>
<path fill="#2E2929" opacity="1.000000" stroke="none" 
	d="
M138.295822,59.877533 
	C137.815338,58.975594 137.608383,57.898689 137.296066,56.273529 
	C139.758896,57.207378 143.792038,56.147392 140.471558,60.914379 
	C139.616943,60.577175 139.093140,60.139870 138.295822,59.877533 
z"/>
<path fill="#CDC7C6" opacity="1.000000" stroke="none" 
	d="
M175.256195,59.510345 
	C174.472382,60.431961 173.503799,61.264450 172.215424,62.316814 
	C171.844925,61.216164 171.794220,59.895638 171.951279,58.291145 
	C173.129837,58.478531 174.100632,58.949875 175.256195,59.510345 
z"/>
<path fill="#5C4F4F" opacity="1.000000" stroke="none" 
	d="
M192.571304,78.288193 
	C193.543320,78.866386 194.179245,79.670944 194.925232,80.763908 
	C194.136963,82.547279 193.238632,84.042236 192.235229,85.712059 
	C192.235229,83.275047 192.235229,80.894806 192.571304,78.288193 
z"/>
<path fill="#5D5151" opacity="1.000000" stroke="none" 
	d="
M172.021271,80.509880 
	C172.008591,79.776375 172.071625,79.316422 172.284531,77.763046 
	C173.005692,79.608765 173.367279,80.534225 173.728882,81.459686 
	C173.184921,81.234268 172.640961,81.008850 172.021271,80.509880 
z"/>
<path fill="#5C4F4F" opacity="1.000000" stroke="none" 
	d="
M196.003784,83.385834 
	C196.739594,81.598640 197.543213,80.177246 198.604279,78.520142 
	C198.992172,80.691917 199.122650,83.099411 199.317993,86.703735 
	C197.721176,85.251663 196.896408,84.501648 196.003784,83.385834 
z"/>
<path fill="#FCF6F4" opacity="1.000000" stroke="none" 
	d="
M247.635101,99.995964 
	C247.997864,100.755951 247.995743,101.513123 247.987213,102.649582 
	C246.742447,102.653069 245.504089,102.277275 244.265732,101.901482 
	C244.296204,101.519058 244.326691,101.136642 244.357162,100.754227 
	C245.328186,100.500534 246.299194,100.246841 247.635101,99.995964 
z"/>
<path fill="#F2DFE0" opacity="1.000000" stroke="none" 
	d="
M19.209446,36.238342 
	C19.778887,35.688496 20.555227,35.371956 21.663462,35.078571 
	C21.135685,35.558369 20.276014,36.015007 19.209446,36.238342 
z"/>
<path fill="#FCF6F4" opacity="1.000000" stroke="none" 
	d="
M248.057388,105.315498 
	C248.552032,105.308968 249.023239,105.641106 249.494446,105.973236 
	C249.194809,106.286301 248.895172,106.599365 248.315765,106.962013 
	C248.035309,106.559120 248.034637,106.106644 248.057388,105.315498 
z"/>
<path fill="#2E2929" opacity="1.000000" stroke="none" 
	d="
M140.005508,53.621765 
	C139.577988,54.049572 139.102325,54.242523 138.626663,54.435474 
	C138.651672,54.036907 138.676682,53.638336 138.927551,53.088413 
	C139.508102,52.932041 139.776093,53.081989 140.005508,53.621765 
z"/>
<path fill="#35302E" opacity="1.000000" stroke="none" 
	d="
M129.220001,51.665699 
	C128.790161,51.952694 128.305740,51.990368 127.456947,52.032410 
	C127.783524,51.829979 128.474457,51.623180 129.220001,51.665699 
z"/>
<path fill="#1B1817" opacity="1.000000" stroke="none" 
	d="
M63.728714,71.174911 
	C64.589630,70.948563 65.241837,71.125282 65.962311,71.659271 
	C65.529396,72.415871 65.028221,72.815208 64.225105,73.088478 
	C63.788780,72.500938 63.654392,72.039459 63.728714,71.174911 
z"/>
<path fill="#D7CBCC" opacity="1.000000" stroke="none" 
	d="
M70.870766,73.195778 
	C70.948235,73.595909 70.767258,74.190529 70.336029,74.982178 
	C70.261276,74.582893 70.436798,73.986580 70.870766,73.195778 
z"/>
<path fill="#5C4F4F" opacity="1.000000" stroke="none" 
	d="
M194.677292,81.237892 
	C195.390335,81.450989 195.830154,81.944809 196.125824,82.752151 
	C195.455795,82.549988 194.929916,82.034302 194.677292,81.237892 
z"/>
<path fill="#26201F" opacity="1.000000" stroke="none" 
	d="
M155.039795,66.325134 
	C154.994400,66.345291 155.146667,66.086708 155.146667,66.086708 
	C155.146667,66.086708 154.969818,66.226051 155.069977,66.291283 
	C155.170120,66.356514 155.085190,66.304977 155.039795,66.325134 
z"/>
<path fill="#1D1818" opacity="1.000000" stroke="none" 
	d="
M106.688972,62.160034 
	C107.206818,62.194191 107.512466,62.435097 107.973747,62.928398 
	C107.813934,63.388313 107.498482,63.595837 106.806274,63.380386 
	C106.445274,62.760540 106.461021,62.563663 106.688972,62.160034 
z"/>
<path fill="#D2C9C9" opacity="1.000000" stroke="none" 
	d="
M99.949631,52.169029 
	C99.888237,52.397198 99.420639,52.610901 98.844536,52.537003 
	C99.005165,52.217789 99.274300,52.186172 99.949631,52.169029 
z"/>
<path fill="#1F1918" opacity="1.000000" stroke="none" 
	d="
M134.855545,51.246716 
	C135.058990,51.234230 135.205368,51.488678 135.217590,51.861214 
	C134.988434,51.824085 134.893448,51.668865 134.855545,51.246716 
z"/>
<path fill="#1F1918" opacity="1.000000" stroke="none" 
	d="
M134.597076,48.941444 
	C134.886459,49.078850 134.908279,49.350082 134.902100,50.028763 
	C134.692566,49.982567 134.511032,49.528919 134.597076,48.941444 
z"/>
<path fill="#F2DFE0" opacity="1.000000" stroke="none" 
	d="
M217.962906,17.328987 
	C213.057571,17.763124 208.071320,17.905920 203.085068,17.905390 
	C147.660156,17.899500 92.235260,17.871435 36.346169,17.735594 
	C37.144932,17.086462 38.373875,16.215397 39.677670,16.083351 
	C42.691349,15.778129 46.354675,16.887917 45.738930,11.461300 
	C45.671917,10.870723 49.464531,9.140356 51.476616,9.123875 
	C72.467087,8.951947 93.460587,8.893270 114.451149,9.062825 
	C134.742935,9.226734 155.060196,9.159835 175.312820,10.217649 
	C188.820068,10.923146 202.237167,13.395081 215.680328,15.183862 
	C216.479324,15.290180 217.151047,16.353233 217.962906,17.328987 
z"/>
<path fill="#F7E1E5" opacity="1.000000" stroke="none" 
	d="
M33.672729,19.006310 
	C33.705059,21.704586 33.737385,24.402864 33.341148,27.546900 
	C31.934130,28.677723 30.955677,29.362787 29.977222,30.047853 
	C27.257807,29.522522 24.514729,29.095543 21.824648,28.448292 
	C18.002836,27.528736 17.677816,24.557775 18.149158,21.408617 
	C18.650511,18.058958 20.740232,16.662167 24.135242,16.966827 
	C26.108978,17.143948 28.110102,17.015873 30.608232,17.350636 
	C31.969286,18.119534 32.821007,18.562922 33.672729,19.006310 
M26.852451,27.600237 
	C27.469875,27.151461 28.087299,26.702684 28.704723,26.253908 
	C28.393122,25.935843 28.081522,25.617779 27.769920,25.299713 
	C27.310148,25.909039 26.850376,26.518366 26.852451,27.600237 
z"/>
<path fill="#5E5D5D" opacity="1.000000" stroke="none" 
	d="
M233.613495,18.060455 
	C234.041168,18.623800 234.018417,19.045782 233.968964,19.784548 
	C228.940842,20.068228 223.939377,20.035126 218.476624,19.934843 
	C218.564194,19.412119 219.113068,18.956573 219.821625,18.284081 
	C224.375214,18.017784 228.769150,17.968437 233.613495,18.060455 
z"/>
<path fill="#F2DFE0" opacity="1.000000" stroke="none" 
	d="
M30.157188,30.261116 
	C30.955677,29.362787 31.934130,28.677723 33.258480,27.989098 
	C33.660343,28.450247 33.716305,28.914957 33.673294,29.719292 
	C32.495262,30.197403 31.416210,30.335892 30.157188,30.261116 
z"/>
<path fill="#F2DFE0" opacity="1.000000" stroke="none" 
	d="
M33.836212,18.793444 
	C32.821007,18.562922 31.969286,18.119534 31.065832,17.367569 
	C31.845051,17.285833 32.676003,17.512678 33.795574,17.894997 
	C34.056030,18.227171 34.027863,18.403875 33.836212,18.793444 
z"/>
<path fill="#C8C2C2" opacity="1.000000" stroke="none" 
	d="
M111.134140,67.046844 
	C113.974258,68.002991 114.525375,70.374779 112.088776,72.400688 
	C110.977501,73.324646 109.286407,73.551247 107.858299,74.094147 
	C107.482239,73.664734 107.106178,73.235313 106.730125,72.805901 
	C108.125618,71.074181 109.521103,69.342461 111.072578,67.288223 
	C111.228561,66.965706 111.170494,67.026054 111.134140,67.046844 
z"/>
<path fill="#484140" opacity="1.000000" stroke="none" 
	d="
M106.770523,65.060226 
	C106.902962,65.158775 106.733795,65.581413 106.348099,66.103470 
	C106.244019,65.930038 106.356476,65.657166 106.770523,65.060226 
z"/>
<path fill="#F2DFE0" opacity="1.000000" stroke="none" 
	d="
M26.621529,27.363964 
	C26.850376,26.518366 27.310148,25.909039 27.769920,25.299713 
	C28.081522,25.617779 28.393122,25.935843 28.704723,26.253908 
	C28.087299,26.702684 27.469875,27.151461 26.621529,27.363964 
z"/>
</svg>