<?xml version="1.0" standalone="no"?>
<!DOCTYPE svg PUBLIC "-//W3C//DTD SVG 20010904//EN"
 "http://www.w3.org/TR/2001/REC-SVG-20010904/DTD/svg10.dtd">
<svg version="1.0" xmlns="http://www.w3.org/2000/svg"
 width="264.000000pt" height="134.000000pt" viewBox="0 0 264.000000 134.000000"
 preserveAspectRatio="xMidYMid meet">
<metadata>
Created by potrace 1.10, written by Peter Selinger 2001-2011
</metadata>
<g transform="translate(0.000000,134.000000) scale(0.100000,-0.100000)"
fill="#000000" stroke="none">
<path d="M330 1005 c0 -103 4 -165 10 -165 6 0 10 58 10 155 l0 155 990 0 990
0 0 -156 c0 -107 3 -155 11 -152 6 2 10 7 10 11 -1 4 -1 77 -1 162 l0 155
-1010 0 -1010 0 0 -165z"/>
<path d="M666 1006 c-33 -57 -80 -219 -72 -251 4 -14 20 -32 38 -41 l32 -17
39 44 c22 24 53 68 69 97 17 29 33 51 35 48 7 -6 -90 -247 -125 -311 -15 -27
-36 -51 -46 -53 -16 -4 -18 0 -13 31 3 19 17 53 31 76 29 45 31 51 16 51 -20
0 -90 -102 -90 -130 0 -31 39 -70 71 -70 37 0 101 116 180 325 22 61 48 124
57 142 13 26 13 34 3 47 -22 26 -39 19 -67 -26 -53 -87 -79 -124 -122 -175
-68 -82 -76 -71 -41 59 12 43 32 95 46 115 26 39 27 76 2 81 -11 2 -26 -13
-43 -42z"/>
<path d="M1817 987 c-3 -24 -9 -51 -13 -60 -4 -12 -1 -17 14 -17 14 0 25 14
41 56 11 31 21 58 21 60 0 2 -13 4 -29 4 -26 0 -29 -4 -34 -43z"/>
<path d="M1559 933 c-1 -5 -1 -12 0 -17 1 -4 -5 -19 -14 -32 -19 -29 -19 -34
-1 -34 17 0 56 51 56 74 0 16 -39 24 -41 9z"/>
<path d="M1332 853 c-11 -16 -29 -48 -41 -71 -27 -52 -40 -49 -15 3 12 25 14
39 6 47 -15 15 -29 3 -37 -30 -6 -28 -68 -72 -82 -59 -3 4 -7 34 -7 67 0 35
-5 60 -11 60 -18 0 -35 -23 -35 -47 0 -13 -7 -31 -16 -40 -8 -10 -29 -37 -45
-60 -16 -24 -34 -43 -40 -43 -13 0 -2 64 18 103 18 36 2 63 -27 47 -25 -13
-27 -13 -33 10 -12 48 -78 3 -102 -71 -21 -63 -14 -99 21 -99 19 0 31 11 52
45 33 53 44 58 29 10 -12 -40 3 -85 28 -85 22 0 69 53 91 101 18 42 34 51 34
20 0 -11 3 -26 6 -35 4 -10 -5 -20 -25 -31 -88 -45 -68 -134 25 -111 30 8 59
66 50 102 -5 19 0 26 23 39 34 17 45 19 37 6 -6 -9 20 -49 27 -41 3 3 21 37
41 77 19 39 40 74 46 78 14 8 13 2 -6 -44 -15 -39 -16 -82 -1 -81 6 0 33 36
66 90 17 28 23 2 6 -30 -9 -18 -15 -48 -13 -73 4 -55 28 -60 73 -17 26 25 33
28 38 16 9 -22 54 -20 67 3 6 11 17 17 27 15 13 -3 26 9 47 41 28 45 49 57 27
17 -19 -35 -13 -80 11 -93 20 -11 26 -7 65 37 56 64 56 91 0 36 -23 -23 -47
-42 -51 -42 -14 0 2 58 25 89 22 31 20 61 -4 61 -14 0 -58 -49 -84 -94 -12
-20 -12 -20 -13 5 0 15 10 38 21 53 15 19 18 31 11 38 -20 20 -37 1 -56 -58
-19 -62 -40 -94 -63 -94 -19 0 -16 20 8 59 16 27 18 36 7 42 -25 16 -36 9 -49
-28 -7 -21 -24 -53 -38 -70 -45 -57 -55 -37 -20 41 39 89 3 131 -48 55 -29
-44 -44 -39 -20 8 8 15 12 34 10 41 -8 21 -41 13 -61 -15z m-369 -43 c3 -12
-6 -36 -25 -62 -39 -55 -37 -52 -44 -45 -10 10 37 127 51 127 7 0 15 -9 18
-20z m163 -154 c-7 -30 -43 -53 -58 -38 -7 7 0 20 23 41 37 34 44 33 35 -3z"/>
<path d="M1960 850 c-8 -15 -8 -36 1 -78 11 -54 11 -57 -12 -72 -34 -21 -69
-57 -69 -70 0 -5 9 -19 20 -30 46 -46 120 -4 120 68 0 35 4 41 50 71 47 30 63
51 40 51 -6 0 -29 -12 -51 -27 -50 -33 -62 -22 -55 55 4 46 2 52 -14 52 -11 0
-24 -9 -30 -20z m15 -189 c-8 -27 -32 -51 -51 -51 -24 0 -16 27 17 55 35 28
44 27 34 -4z"/>
<path d="M330 410 l0 -170 1010 0 1010 0 0 160 c0 88 0 162 0 165 0 3 -3 6 -7
8 -5 1 -9 -69 -11 -155 l-3 -158 -989 0 -990 0 0 160 c0 100 -4 160 -10 160
-6 0 -10 -63 -10 -170z"/>
<path d="M1643 573 c-18 -6 -16 -42 2 -49 23 -9 18 -26 -5 -19 -24 8 -27 -10
-3 -19 9 -4 23 0 32 9 15 15 14 18 -7 35 l-22 19 21 3 c18 2 20 5 8 14 -8 6
-20 9 -26 7z"/>
<path d="M1762 533 c3 -41 6 -48 26 -51 12 -2 22 1 22 7 0 6 -9 11 -20 11 -17
0 -19 5 -14 34 3 20 0 37 -6 41 -8 5 -10 -8 -8 -42z"/>
<path d="M1190 526 c0 -30 4 -46 13 -46 26 0 37 17 34 51 -2 27 -7 35 -25 37
-20 3 -22 -1 -22 -42z"/>
<path d="M1252 528 c2 -36 7 -44 26 -46 12 -2 22 1 22 7 0 6 -7 11 -15 11 -18
0 -20 16 -2 23 9 4 8 8 -3 16 -13 9 -13 11 3 11 9 0 17 5 17 10 0 6 -12 10
-26 10 -23 0 -25 -3 -22 -42z"/>
<path d="M1326 536 c-20 -47 -20 -67 -1 -42 14 19 15 19 36 0 22 -19 22 -19
14 6 -4 14 -13 36 -20 50 l-13 24 -16 -38z"/>
<path d="M1389 565 c-3 -2 -3 -20 -1 -39 8 -65 63 -53 61 13 l-2 36 -6 -35
c-7 -43 -36 -49 -36 -8 -1 28 -8 42 -16 33z"/>
<path d="M1465 560 c4 -6 11 -8 16 -5 5 4 9 -13 9 -36 0 -49 14 -45 14 4 1 43
28 43 41 0 14 -43 25 -52 25 -20 0 14 5 29 10 32 6 3 10 13 10 21 0 20 -20 17
-20 -3 -1 -17 -1 -17 -14 0 -14 19 -103 26 -91 7z"/>
<path d="M1699 543 c-5 -16 -12 -34 -14 -40 -5 -16 11 -17 20 -2 5 7 14 4 27
-8 20 -18 21 -18 13 7 -14 46 -24 70 -30 70 -3 0 -10 -12 -16 -27z"/>
<path d="M1820 549 c-9 -16 -8 -26 5 -45 8 -13 22 -24 30 -24 19 0 45 28 45
49 0 41 -61 57 -80 20z m58 -23 c-4 -25 -36 -34 -44 -12 -8 21 13 46 32 39 8
-3 14 -15 12 -27z"/>
<path d="M1910 526 c0 -26 4 -45 9 -42 4 3 6 18 4 33 l-4 28 29 -33 30 -34 4
42 c2 23 0 44 -4 46 -4 3 -8 -7 -8 -22 l0 -28 -30 29 -30 29 0 -48z"/>
</g>
</svg>
